<mxfile host="app.diagrams.net" modified="2023-06-13T09:07:15.528Z" agent="Mozilla/5.0 (X11; Linux x86_64; rv:102.0) Gecko/20100101 Firefox/102.0" etag="cOu64aFRqQEobS4SWB3v" version="21.3.7" type="device">
  <diagram name="PÃ¡gina-1" id="38n_dQDRQYlK5GUMHnF6">
    <mxGraphModel dx="988" dy="549" grid="1" gridSize="10" guides="1" tooltips="1" connect="1" arrows="1" fold="1" page="1" pageScale="1" pageWidth="1169" pageHeight="827" math="1" shadow="0">
      <root>
        <mxCell id="0" />
        <mxCell id="1" parent="0" />
        <mxCell id="-QxFghpmxpK_gL1Y8Vd7-5" style="edgeStyle=orthogonalEdgeStyle;rounded=0;orthogonalLoop=1;jettySize=auto;html=1;entryX=0;entryY=0.5;entryDx=0;entryDy=0;entryPerimeter=0;" parent="1" source="-QxFghpmxpK_gL1Y8Vd7-1" target="-QxFghpmxpK_gL1Y8Vd7-4" edge="1">
          <mxGeometry relative="1" as="geometry" />
        </mxCell>
        <mxCell id="a91AHmK2qjagfqqg4glv-1" value="$$s&#39;(t)$$" style="edgeLabel;html=1;align=center;verticalAlign=middle;resizable=0;points=[];labelBackgroundColor=none;" parent="-QxFghpmxpK_gL1Y8Vd7-5" vertex="1" connectable="0">
          <mxGeometry x="0.2833" y="-2" relative="1" as="geometry">
            <mxPoint x="-6" y="-17" as="offset" />
          </mxGeometry>
        </mxCell>
        <mxCell id="-QxFghpmxpK_gL1Y8Vd7-1" value="$$h(t)$$" style="rounded=0;whiteSpace=wrap;html=1;" parent="1" vertex="1">
          <mxGeometry x="520" y="370" width="120" height="60" as="geometry" />
        </mxCell>
        <mxCell id="-QxFghpmxpK_gL1Y8Vd7-3" style="edgeStyle=orthogonalEdgeStyle;rounded=0;orthogonalLoop=1;jettySize=auto;html=1;entryX=0;entryY=0.5;entryDx=0;entryDy=0;" parent="1" source="-QxFghpmxpK_gL1Y8Vd7-2" target="-QxFghpmxpK_gL1Y8Vd7-1" edge="1">
          <mxGeometry relative="1" as="geometry" />
        </mxCell>
        <mxCell id="-QxFghpmxpK_gL1Y8Vd7-2" value="$$s(t)$$" style="text;html=1;strokeColor=none;fillColor=none;align=right;verticalAlign=middle;whiteSpace=wrap;rounded=0;" parent="1" vertex="1">
          <mxGeometry x="420" y="385" width="60" height="30" as="geometry" />
        </mxCell>
        <mxCell id="-QxFghpmxpK_gL1Y8Vd7-12" style="edgeStyle=orthogonalEdgeStyle;rounded=0;orthogonalLoop=1;jettySize=auto;html=1;entryX=0;entryY=0.5;entryDx=0;entryDy=0;" parent="1" source="-QxFghpmxpK_gL1Y8Vd7-4" target="-QxFghpmxpK_gL1Y8Vd7-11" edge="1">
          <mxGeometry relative="1" as="geometry" />
        </mxCell>
        <mxCell id="-QxFghpmxpK_gL1Y8Vd7-4" value="" style="verticalLabelPosition=bottom;verticalAlign=top;html=1;shape=mxgraph.flowchart.summing_function;" parent="1" vertex="1">
          <mxGeometry x="680" y="390" width="20" height="20" as="geometry" />
        </mxCell>
        <mxCell id="-QxFghpmxpK_gL1Y8Vd7-7" style="edgeStyle=orthogonalEdgeStyle;rounded=0;orthogonalLoop=1;jettySize=auto;html=1;entryX=0.5;entryY=0;entryDx=0;entryDy=0;entryPerimeter=0;" parent="1" source="-QxFghpmxpK_gL1Y8Vd7-6" target="-QxFghpmxpK_gL1Y8Vd7-4" edge="1">
          <mxGeometry relative="1" as="geometry" />
        </mxCell>
        <mxCell id="-QxFghpmxpK_gL1Y8Vd7-6" value="$$n&#39;(t)$$" style="text;html=1;strokeColor=none;fillColor=none;align=center;verticalAlign=middle;whiteSpace=wrap;rounded=0;" parent="1" vertex="1">
          <mxGeometry x="660" y="300" width="60" height="30" as="geometry" />
        </mxCell>
        <mxCell id="-QxFghpmxpK_gL1Y8Vd7-15" style="edgeStyle=orthogonalEdgeStyle;rounded=0;orthogonalLoop=1;jettySize=auto;html=1;entryX=0;entryY=0.5;entryDx=0;entryDy=0;" parent="1" source="-QxFghpmxpK_gL1Y8Vd7-11" target="-QxFghpmxpK_gL1Y8Vd7-14" edge="1">
          <mxGeometry relative="1" as="geometry" />
        </mxCell>
        <mxCell id="-QxFghpmxpK_gL1Y8Vd7-11" value="$$w(t)$$" style="rounded=0;whiteSpace=wrap;html=1;" parent="1" vertex="1">
          <mxGeometry x="740" y="370" width="120" height="60" as="geometry" />
        </mxCell>
        <mxCell id="-QxFghpmxpK_gL1Y8Vd7-14" value="$$\hat{s}(f)$$" style="text;html=1;strokeColor=none;fillColor=none;align=left;verticalAlign=middle;whiteSpace=wrap;rounded=0;" parent="1" vertex="1">
          <mxGeometry x="900" y="385" width="60" height="30" as="geometry" />
        </mxCell>
      </root>
    </mxGraphModel>
  </diagram>
</mxfile>
